<svg width="51" height="51" viewBox="0 0 51 51" fill="none" xmlns="http://www.w3.org/2000/svg">
<path d="M0 10.2C0 7.49479 1.07464 4.90038 2.98751 2.98751C4.90038 1.07464 7.49479 0 10.2 0L40.8 0C43.5052 0 46.0996 1.07464 48.0125 2.98751C49.9254 4.90038 51 7.49479 51 10.2V40.8C51 43.5052 49.9254 46.0996 48.0125 48.0125C46.0996 49.9254 43.5052 51 40.8 51H10.2C7.49479 51 4.90038 49.9254 2.98751 48.0125C1.07464 46.0996 0 43.5052 0 40.8L0 10.2Z" fill="#1FB6BF"/>
<path fill-rule="evenodd" clip-rule="evenodd" d="M23.205 12.24C22.8669 12.24 22.5426 12.3743 22.3035 12.6134C22.0644 12.8525 21.93 13.1768 21.93 13.515V20.4H16.065C15.7269 20.4 15.4026 20.5343 15.1635 20.7734C14.9244 21.0125 14.79 21.3368 14.79 21.675V37.485C14.79 38.182 15.368 38.76 16.065 38.76H28.05C28.747 38.76 29.325 38.182 29.325 37.485V30.6H35.19C35.887 30.6 36.465 30.022 36.465 29.325V13.515C36.465 13.1768 36.3307 12.8525 36.0916 12.6134C35.8525 12.3743 35.5282 12.24 35.19 12.24H23.205ZM21.93 22.95V29.325C21.93 30.022 22.508 30.6 23.205 30.6H26.775V36.21H17.34V22.95H21.93Z" fill="white"/>
</svg>
