<svg width="53" height="53" viewBox="0 0 53 53" fill="none" xmlns="http://www.w3.org/2000/svg">
<path d="M0 10.6C0 7.78871 1.11678 5.09255 3.10467 3.10467C5.09255 1.11678 7.78871 0 10.6 0L42.4 0C45.2113 0 47.9074 1.11678 49.8953 3.10467C51.8832 5.09255 53 7.78871 53 10.6V42.4C53 45.2113 51.8832 47.9074 49.8953 49.8953C47.9074 51.8832 45.2113 53 42.4 53H10.6C7.78871 53 5.09255 51.8832 3.10467 49.8953C1.11678 47.9074 0 45.2113 0 42.4L0 10.6Z" fill="#E67E22"/>
<path d="M38.0758 36.6472C38.8437 36.6472 39.4682 37.2798 39.4682 38.0577C39.4682 38.837 38.8437 39.4681 38.0758 39.4681H30.2059C29.4381 39.4681 28.8136 38.837 28.8136 38.0577C28.8136 37.2798 29.4381 36.6472 30.2059 36.6472H38.0758ZM32.6181 15.6231L34.651 17.238C35.4847 17.8899 36.0404 18.7492 36.2306 19.653C36.4499 20.6471 36.2159 21.6235 35.5578 22.468L23.4479 38.1283C22.8922 38.8395 22.0732 39.2395 21.1956 39.2543L16.3692 39.3136C16.106 39.3136 15.8866 39.1358 15.8281 38.8839L14.7312 34.1281C14.5411 33.2539 14.7312 32.3502 15.287 31.6538L23.8721 20.5419C24.0183 20.3642 24.2816 20.336 24.4571 20.4679L28.0696 23.3421C28.3036 23.5347 28.6253 23.6385 28.9617 23.594C29.6784 23.5051 30.161 22.8532 30.0879 22.1569C30.044 21.8013 29.8685 21.505 29.6345 21.2827C29.5614 21.2235 26.1244 18.4677 26.1244 18.4677C25.905 18.2899 25.8611 17.964 26.0366 17.7432L27.3968 15.9787C28.6546 14.3637 30.8484 14.2156 32.6181 15.6231Z" fill="white"/>
</svg>
