<svg width="53" height="53" viewBox="0 0 53 53" fill="none" xmlns="http://www.w3.org/2000/svg">
<path d="M0 10.6C0 7.78871 1.11678 5.09255 3.10467 3.10467C5.09255 1.11678 7.78871 0 10.6 0L42.4 0C45.2113 0 47.9074 1.11678 49.8953 3.10467C51.8832 5.09255 53 7.78871 53 10.6V42.4C53 45.2113 51.8832 47.9074 49.8953 49.8953C47.9074 51.8832 45.2113 53 42.4 53H10.6C7.78871 53 5.09255 51.8832 3.10467 49.8953C1.11678 47.9074 0 45.2113 0 42.4L0 10.6Z" fill="#E67E22"/>
<path fill-rule="evenodd" clip-rule="evenodd" d="M19.0801 32.754V16.695H33.2664L19.0801 32.7717V32.754ZM19.4864 36.305H33.92V19.9633L19.4864 36.305ZM36.57 16.96V37.63C36.57 38.3543 35.9694 38.955 35.245 38.955H17.7551C17.4036 38.955 17.0666 38.8154 16.8181 38.5669C16.5697 38.3184 16.4301 37.9814 16.4301 37.63V15.37C16.4301 14.6456 17.0307 14.045 17.7551 14.045H35.245C35.9694 14.045 36.57 14.6456 36.57 15.37V16.96Z" fill="white"/>
</svg>
